<svg width="262" height="36" viewBox="0 0 262 36" fill="none" xmlns="http://www.w3.org/2000/svg">
<path fill-rule="evenodd" clip-rule="evenodd" d="M29.5229 10.4791C32.1887 10.4791 34.3498 8.31801 34.3498 5.6522C34.3498 2.98638 32.1887 0.825317 29.5229 0.825317C26.8571 0.825317 24.696 2.98638 24.696 5.6522C24.696 8.31801 26.8571 10.4791 29.5229 10.4791Z" fill="#8D8BA7"/>
<path fill-rule="evenodd" clip-rule="evenodd" d="M29.5226 22.602C32.1884 22.602 34.3495 20.441 34.3495 17.7753C34.3495 15.1096 32.1884 12.9486 29.5226 12.9486C26.8568 12.9486 24.6957 15.1096 24.6957 17.7753C24.6957 20.441 26.8568 22.602 29.5226 22.602Z" fill="#8D8BA7"/>
<path fill-rule="evenodd" clip-rule="evenodd" d="M29.5226 35.1747C32.1884 35.1747 34.3495 33.0136 34.3495 30.3478C34.3495 27.682 32.1884 25.5209 29.5226 25.5209C26.8568 25.5209 24.6957 27.682 24.6957 30.3478C24.6957 33.0136 26.8568 35.1747 29.5226 35.1747Z" fill="#8D8BA7"/>
<path fill-rule="evenodd" clip-rule="evenodd" d="M16.9506 22.602C19.6164 22.602 21.7774 20.441 21.7774 17.7753C21.7774 15.1096 19.6164 12.9486 16.9506 12.9486C14.2849 12.9486 12.1239 15.1096 12.1239 17.7753C12.1239 20.441 14.2849 22.602 16.9506 22.602Z" fill="#8D8BA7"/>
<path fill-rule="evenodd" clip-rule="evenodd" d="M16.9504 35.1747C19.6161 35.1747 21.7772 33.0136 21.7772 30.3478C21.7772 27.682 19.6161 25.5209 16.9504 25.5209C14.2847 25.5209 12.1237 27.682 12.1237 30.3478C12.1237 33.0136 14.2847 35.1747 16.9504 35.1747Z" fill="#8D8BA7"/>
<path fill-rule="evenodd" clip-rule="evenodd" d="M4.82679 35.1747C7.4926 35.1747 9.65367 33.0136 9.65367 30.3478C9.65367 27.682 7.4926 25.5209 4.82679 25.5209C2.16098 25.5209 -9.15527e-05 27.682 -9.15527e-05 30.3478C-9.15527e-05 33.0136 2.16098 35.1747 4.82679 35.1747Z" fill="#8D8BA7"/>
<path d="M57.3189 5.2C60.3589 5.2 62.5189 5.86667 63.7989 7.2C64.7589 8.21333 65.2389 9.49333 65.2389 11.04C65.2389 11.5733 65.1856 12.1333 65.0789 12.72L64.5189 15.84C64.1989 17.5733 63.6389 18.9733 62.8389 20.04C62.0656 21.1067 61.1989 21.8667 60.2389 22.32L63.8789 34H55.7989L52.4389 23.24H49.9589L48.3189 34H40.6389L45.7189 5.2H57.3189ZM54.7989 11.44H51.7989L50.7589 18.4H53.5589C54.9722 18.4 55.9856 18.0667 56.5989 17.4C57.2122 16.7067 57.5189 15.8 57.5189 14.68C57.5189 12.52 56.6122 11.44 54.7989 11.44ZM75.0889 34.56C69.5422 34.56 66.7689 32.64 66.7689 28.8C66.7689 28.2667 66.8222 27.6933 66.9289 27.08L67.7689 22.12C68.2222 19.56 69.3956 17.6 71.2889 16.24C73.2089 14.8533 75.7422 14.16 78.8889 14.16C84.2489 14.16 86.9289 16.1867 86.9289 20.24C86.9289 20.8267 86.8756 21.4667 86.7689 22.16L86.2889 25H74.0889L73.9289 25.92C73.8756 26.24 73.8489 26.5333 73.8489 26.8C73.8489 28.2667 74.7156 29 76.4489 29C77.0889 29 77.6356 28.8 78.0889 28.4C78.5422 28 78.8089 27.5333 78.8889 27L85.5289 27.08C84.6489 32.0667 81.1689 34.56 75.0889 34.56ZM79.8889 22.56C79.9956 22.1067 80.0489 21.6933 80.0489 21.32C80.0489 20.92 79.8756 20.52 79.5289 20.12C79.1822 19.72 78.6222 19.52 77.8489 19.52C77.1022 19.52 76.4089 19.7733 75.7689 20.28C75.1556 20.7867 74.7289 21.5467 74.4889 22.56H79.8889ZM101.959 21.72C101.959 20.5733 101.399 20 100.279 20C99.1859 20 98.2792 20.4133 97.5592 21.24L95.3192 34H88.5192L91.9192 14.76H98.2392L97.7992 17.12C99.3726 15.1733 101.359 14.2 103.759 14.2C106.159 14.2 107.719 14.7867 108.439 15.96C108.893 16.7067 109.119 17.56 109.119 18.52C109.119 19.48 109.053 20.3733 108.919 21.2L107.839 27.36C107.813 27.52 107.799 27.6667 107.799 27.8C107.799 28.52 108.199 28.88 108.999 28.88C109.613 28.88 110.159 28.7467 110.639 28.48L110.439 33C109.186 34.04 107.759 34.56 106.159 34.56C102.533 34.56 100.719 33.04 100.719 30C100.719 29.4667 100.773 28.8933 100.879 28.28L101.839 22.96C101.919 22.48 101.959 22.0667 101.959 21.72ZM121.065 34.56C115.519 34.56 112.745 32.64 112.745 28.8C112.745 28.2667 112.799 27.6933 112.905 27.08L113.745 22.12C114.199 19.56 115.372 17.6 117.265 16.24C119.185 14.8533 121.719 14.16 124.865 14.16C130.225 14.16 132.905 16.1867 132.905 20.24C132.905 20.8267 132.852 21.4667 132.745 22.16L132.265 25H120.065L119.905 25.92C119.852 26.24 119.825 26.5333 119.825 26.8C119.825 28.2667 120.692 29 122.425 29C123.065 29 123.612 28.8 124.065 28.4C124.519 28 124.785 27.5333 124.865 27L131.505 27.08C130.625 32.0667 127.145 34.56 121.065 34.56ZM125.865 22.56C125.972 22.1067 126.025 21.6933 126.025 21.32C126.025 20.92 125.852 20.52 125.505 20.12C125.159 19.72 124.599 19.52 123.825 19.52C123.079 19.52 122.385 19.7733 121.745 20.28C121.132 20.7867 120.705 21.5467 120.465 22.56H125.865ZM167.736 14.76C168.109 15.88 168.296 17.3733 168.296 19.24C168.296 21.08 168.069 22.8533 167.616 24.56C167.162 26.2667 166.469 27.8933 165.536 29.44C164.629 30.96 163.349 32.2 161.696 33.16C160.069 34.0933 158.189 34.56 156.056 34.56C152.856 34.56 150.722 33.6667 149.656 31.88C147.736 33.6667 145.589 34.56 143.216 34.56C140.016 34.56 137.816 33.88 136.616 32.52C135.816 31.6133 135.416 30.2667 135.416 28.48C135.416 27.5467 135.522 26.5067 135.736 25.36L137.616 14.76H144.416L142.536 25.4C142.456 25.8 142.416 26.16 142.416 26.48C142.416 28 143.202 28.76 144.776 28.76C145.869 28.76 146.696 28.2933 147.256 27.36C147.816 26.4 148.296 24.7333 148.696 22.36L150.056 14.76H156.856L154.976 25.4C154.896 25.8 154.856 26.16 154.856 26.48C154.856 28 155.642 28.76 157.216 28.76C159.989 28.76 161.376 25.8533 161.376 20.04C161.376 18.68 161.269 17.1733 161.056 15.52L160.936 14.76H167.736Z" fill="#5D5A88"/>
<path d="M198.964 11.44H189.124L185.164 34H177.924L181.884 11.44H172.004L173.124 5.2H200.084L198.964 11.44ZM218.375 34H198.295L203.375 5.2H223.455L222.335 11.44H209.455L208.535 16.84H219.175L218.055 23.08H207.415L206.615 27.76H219.495L218.375 34ZM233.103 34.56C229.289 34.56 226.649 33.7333 225.183 32.08C224.169 30.9067 223.663 29.2667 223.663 27.16C223.663 26.2533 223.756 25.28 223.943 24.24L225.583 15.04C226.783 8.29333 231.116 4.92 238.583 4.92C241.676 4.92 244.023 5.58666 245.623 6.92C247.223 8.22667 248.023 10.0267 248.023 12.32C248.023 13.3867 247.863 14.4533 247.543 15.52C247.249 16.56 246.956 17.3333 246.663 17.84L246.223 18.64H239.143C240.023 17.6267 240.463 16.1867 240.463 14.32C240.463 13.3333 240.209 12.56 239.703 12C239.196 11.4133 238.449 11.12 237.463 11.12C234.769 11.12 233.169 12.6133 232.663 15.6L231.263 23.68C231.129 24.3733 231.063 25.0533 231.063 25.72C231.063 27.48 232.116 28.36 234.223 28.36C236.756 28.36 238.276 26.9333 238.783 24.08H245.983L245.783 25.24C244.716 31.4533 240.489 34.56 233.103 34.56Z" fill="#8D8BA7"/>
<path fill-rule="evenodd" clip-rule="evenodd" d="M16.8269 9.65376C19.4927 9.65376 21.6538 7.49269 21.6538 4.82688C21.6538 2.16107 19.4927 0 16.8269 0C14.1611 0 12 2.16107 12 4.82688C12 7.49269 14.1611 9.65376 16.8269 9.65376Z" fill="#8D8BA7"/>
<path fill-rule="evenodd" clip-rule="evenodd" d="M4.82688 22.6538C7.49269 22.6538 9.65376 20.4927 9.65376 17.8269C9.65376 15.1611 7.49269 13 4.82688 13C2.16107 13 0 15.1611 0 17.8269C0 20.4927 2.16107 22.6538 4.82688 22.6538Z" fill="#8D8BA7"/>
<path fill-rule="evenodd" clip-rule="evenodd" d="M4.82688 9.65376C7.49269 9.65376 9.65376 7.49269 9.65376 4.82688C9.65376 2.16107 7.49269 0 4.82688 0C2.16107 0 0 2.16107 0 4.82688C0 7.49269 2.16107 9.65376 4.82688 9.65376Z" fill="#8D8BA7"/>
</svg>
