<svg width="262" height="36" viewBox="0 0 262 36" fill="none" xmlns="http://www.w3.org/2000/svg">
<path fill-rule="evenodd" clip-rule="evenodd" d="M29.5228 9.65376C32.1886 9.65376 34.3497 7.49269 34.3497 4.82688C34.3497 2.16107 32.1886 0 29.5228 0C26.857 0 24.696 2.16107 24.696 4.82688C24.696 7.49269 26.857 9.65376 29.5228 9.65376Z" fill="#8D8BA7"/>
<path fill-rule="evenodd" clip-rule="evenodd" d="M29.5226 21.7768C32.1884 21.7768 34.3495 19.6158 34.3495 16.95C34.3495 14.2843 32.1884 12.1233 29.5226 12.1233C26.8568 12.1233 24.6957 14.2843 24.6957 16.95C24.6957 19.6158 26.8568 21.7768 29.5226 21.7768Z" fill="#8D8BA7"/>
<path fill-rule="evenodd" clip-rule="evenodd" d="M17.0945 9.84194C19.7603 9.84194 21.9213 7.68094 21.9213 5.01521C21.9213 2.34948 19.7603 0.188477 17.0945 0.188477C14.4286 0.188477 12.2676 2.34948 12.2676 5.01521C12.2676 7.68094 14.4286 9.84194 17.0945 9.84194Z" fill="#8D8BA7"/>
<path fill-rule="evenodd" clip-rule="evenodd" d="M5.09446 21.8419C7.76027 21.8419 9.92134 19.6809 9.92134 17.0152C9.92134 14.3495 7.76027 12.1885 5.09446 12.1885C2.42865 12.1885 0.267578 14.3495 0.267578 17.0152C0.267578 19.6809 2.42865 21.8419 5.09446 21.8419Z" fill="#8D8BA7"/>
<path fill-rule="evenodd" clip-rule="evenodd" d="M5.09446 9.84194C7.76027 9.84194 9.92134 7.68094 9.92134 5.01521C9.92134 2.34948 7.76027 0.188477 5.09446 0.188477C2.42865 0.188477 0.267578 2.34948 0.267578 5.01521C0.267578 7.68094 2.42865 9.84194 5.09446 9.84194Z" fill="#8D8BA7"/>
<path fill-rule="evenodd" clip-rule="evenodd" d="M29.5226 34.3493C32.1884 34.3493 34.3495 32.1882 34.3495 29.5224C34.3495 26.8566 32.1884 24.6956 29.5226 24.6956C26.8568 24.6956 24.6957 26.8566 24.6957 29.5224C24.6957 32.1882 26.8568 34.3493 29.5226 34.3493Z" fill="#8D8BA7"/>
<path fill-rule="evenodd" clip-rule="evenodd" d="M16.9506 21.7768C19.6163 21.7768 21.7773 19.6158 21.7773 16.95C21.7773 14.2843 19.6163 12.1233 16.9506 12.1233C14.2848 12.1233 12.1238 14.2843 12.1238 16.95C12.1238 19.6158 14.2848 21.7768 16.9506 21.7768Z" fill="#8D8BA7"/>
<path fill-rule="evenodd" clip-rule="evenodd" d="M16.9504 34.3493C19.6161 34.3493 21.7772 32.1882 21.7772 29.5224C21.7772 26.8566 19.6161 24.6956 16.9504 24.6956C14.2847 24.6956 12.1237 26.8566 12.1237 29.5224C12.1237 32.1882 14.2847 34.3493 16.9504 34.3493Z" fill="#8D8BA7"/>
<path fill-rule="evenodd" clip-rule="evenodd" d="M4.82682 34.3493C7.49263 34.3493 9.6537 32.1882 9.6537 29.5224C9.6537 26.8566 7.49263 24.6956 4.82682 24.6956C2.16101 24.6956 -6.10352e-05 26.8566 -6.10352e-05 29.5224C-6.10352e-05 32.1882 2.16101 34.3493 4.82682 34.3493Z" fill="#8D8BA7"/>
<path d="M61.5865 6.38848C64.6265 6.38848 66.7865 7.05514 68.0665 8.38848C69.0265 9.40181 69.5065 10.6818 69.5065 12.2285C69.5065 12.7618 69.4532 13.3218 69.3465 13.9085L68.7865 17.0285C68.4665 18.7618 67.9065 20.1618 67.1065 21.2285C66.3332 22.2951 65.4665 23.0551 64.5065 23.5085L68.1465 35.1885H60.0665L56.7065 24.4285H54.2265L52.5865 35.1885H44.9065L49.9865 6.38848H61.5865ZM59.0665 12.6285H56.0665L55.0265 19.5885H57.8265C59.2398 19.5885 60.2532 19.2551 60.8665 18.5885C61.4798 17.8951 61.7865 16.9885 61.7865 15.8685C61.7865 13.7085 60.8798 12.6285 59.0665 12.6285ZM79.3565 35.7485C73.8098 35.7485 71.0365 33.8285 71.0365 29.9885C71.0365 29.4551 71.0898 28.8818 71.1965 28.2685L72.0365 23.3085C72.4898 20.7485 73.6632 18.7885 75.5565 17.4285C77.4765 16.0418 80.0098 15.3485 83.1565 15.3485C88.5165 15.3485 91.1965 17.3751 91.1965 21.4285C91.1965 22.0151 91.1432 22.6551 91.0365 23.3485L90.5565 26.1885H78.3565L78.1965 27.1085C78.1432 27.4285 78.1165 27.7218 78.1165 27.9885C78.1165 29.4551 78.9832 30.1885 80.7165 30.1885C81.3565 30.1885 81.9032 29.9885 82.3565 29.5885C82.8098 29.1885 83.0765 28.7218 83.1565 28.1885L89.7965 28.2685C88.9165 33.2551 85.4365 35.7485 79.3565 35.7485ZM84.1565 23.7485C84.2632 23.2951 84.3165 22.8818 84.3165 22.5085C84.3165 22.1085 84.1432 21.7085 83.7965 21.3085C83.4498 20.9085 82.8898 20.7085 82.1165 20.7085C81.3698 20.7085 80.6765 20.9618 80.0365 21.4685C79.4232 21.9751 78.9965 22.7351 78.7565 23.7485H84.1565ZM106.227 22.9085C106.227 21.7618 105.667 21.1885 104.547 21.1885C103.453 21.1885 102.547 21.6018 101.827 22.4285L99.5868 35.1885H92.7868L96.1868 15.9485H102.507L102.067 18.3085C103.64 16.3618 105.627 15.3885 108.027 15.3885C110.427 15.3885 111.987 15.9751 112.707 17.1485C113.16 17.8951 113.387 18.7485 113.387 19.7085C113.387 20.6685 113.32 21.5618 113.187 22.3885L112.107 28.5485C112.08 28.7085 112.067 28.8551 112.067 28.9885C112.067 29.7085 112.467 30.0685 113.267 30.0685C113.88 30.0685 114.427 29.9351 114.907 29.6685L114.707 34.1885C113.453 35.2285 112.027 35.7485 110.427 35.7485C106.8 35.7485 104.987 34.2285 104.987 31.1885C104.987 30.6551 105.04 30.0818 105.147 29.4685L106.107 24.1485C106.187 23.6685 106.227 23.2551 106.227 22.9085ZM125.333 35.7485C119.786 35.7485 117.013 33.8285 117.013 29.9885C117.013 29.4551 117.066 28.8818 117.173 28.2685L118.013 23.3085C118.466 20.7485 119.64 18.7885 121.533 17.4285C123.453 16.0418 125.986 15.3485 129.133 15.3485C134.493 15.3485 137.173 17.3751 137.173 21.4285C137.173 22.0151 137.12 22.6551 137.013 23.3485L136.533 26.1885H124.333L124.173 27.1085C124.12 27.4285 124.093 27.7218 124.093 27.9885C124.093 29.4551 124.96 30.1885 126.693 30.1885C127.333 30.1885 127.88 29.9885 128.333 29.5885C128.786 29.1885 129.053 28.7218 129.133 28.1885L135.773 28.2685C134.893 33.2551 131.413 35.7485 125.333 35.7485ZM130.133 23.7485C130.24 23.2951 130.293 22.8818 130.293 22.5085C130.293 22.1085 130.12 21.7085 129.773 21.3085C129.426 20.9085 128.866 20.7085 128.093 20.7085C127.346 20.7085 126.653 20.9618 126.013 21.4685C125.4 21.9751 124.973 22.7351 124.733 23.7485H130.133ZM172.003 15.9485C172.377 17.0685 172.563 18.5618 172.563 20.4285C172.563 22.2685 172.337 24.0418 171.883 25.7485C171.43 27.4551 170.737 29.0818 169.803 30.6285C168.897 32.1485 167.617 33.3885 165.963 34.3485C164.337 35.2818 162.457 35.7485 160.323 35.7485C157.123 35.7485 154.99 34.8551 153.923 33.0685C152.003 34.8551 149.857 35.7485 147.483 35.7485C144.283 35.7485 142.083 35.0685 140.883 33.7085C140.083 32.8018 139.683 31.4551 139.683 29.6685C139.683 28.7351 139.79 27.6951 140.003 26.5485L141.883 15.9485H148.683L146.803 26.5885C146.723 26.9885 146.683 27.3485 146.683 27.6685C146.683 29.1885 147.47 29.9485 149.043 29.9485C150.137 29.9485 150.963 29.4818 151.523 28.5485C152.083 27.5885 152.563 25.9218 152.963 23.5485L154.323 15.9485H161.123L159.243 26.5885C159.163 26.9885 159.123 27.3485 159.123 27.6685C159.123 29.1885 159.91 29.9485 161.483 29.9485C164.257 29.9485 165.643 27.0418 165.643 21.2285C165.643 19.8685 165.537 18.3618 165.323 16.7085L165.203 15.9485H172.003Z" fill="#706E7E"/>
<path d="M203.231 12.6285H193.391L189.431 35.1885H182.191L186.151 12.6285H176.271L177.391 6.38848H204.351L203.231 12.6285ZM222.643 35.1885H202.563L207.643 6.38848H227.723L226.603 12.6285H213.723L212.803 18.0285H223.443L222.323 24.2685H211.683L210.883 28.9485H223.763L222.643 35.1885ZM237.37 35.7485C233.557 35.7485 230.917 34.9218 229.45 33.2685C228.437 32.0951 227.93 30.4551 227.93 28.3485C227.93 27.4418 228.024 26.4685 228.21 25.4285L229.85 16.2285C231.05 9.48181 235.384 6.10847 242.85 6.10847C245.944 6.10847 248.29 6.77514 249.89 8.10847C251.49 9.41514 252.29 11.2151 252.29 13.5085C252.29 14.5751 252.13 15.6418 251.81 16.7085C251.517 17.7485 251.224 18.5218 250.93 19.0285L250.49 19.8285H243.41C244.29 18.8151 244.73 17.3751 244.73 15.5085C244.73 14.5218 244.477 13.7485 243.97 13.1885C243.464 12.6018 242.717 12.3085 241.73 12.3085C239.037 12.3085 237.437 13.8018 236.93 16.7885L235.53 24.8685C235.397 25.5618 235.33 26.2418 235.33 26.9085C235.33 28.6685 236.384 29.5485 238.49 29.5485C241.024 29.5485 242.544 28.1218 243.05 25.2685H250.25L250.05 26.4285C248.984 32.6418 244.757 35.7485 237.37 35.7485Z" fill="#8D8BA7"/>
</svg>
