<svg width="35" height="36" viewBox="0 0 35 36" fill="none" xmlns="http://www.w3.org/2000/svg">
<path fill-rule="evenodd" clip-rule="evenodd" d="M29.5229 10.4791C32.1887 10.4791 34.3498 8.31801 34.3498 5.6522C34.3498 2.98638 32.1887 0.825317 29.5229 0.825317C26.8571 0.825317 24.696 2.98638 24.696 5.6522C24.696 8.31801 26.8571 10.4791 29.5229 10.4791Z" fill="#8D8BA7"/>
<path fill-rule="evenodd" clip-rule="evenodd" d="M29.5226 22.6021C32.1884 22.6021 34.3495 20.4411 34.3495 17.7753C34.3495 15.1096 32.1884 12.9486 29.5226 12.9486C26.8568 12.9486 24.6957 15.1096 24.6957 17.7753C24.6957 20.4411 26.8568 22.6021 29.5226 22.6021Z" fill="#8D8BA7"/>
<path fill-rule="evenodd" clip-rule="evenodd" d="M29.5226 35.1747C32.1884 35.1747 34.3495 33.0136 34.3495 30.3478C34.3495 27.682 32.1884 25.5209 29.5226 25.5209C26.8568 25.5209 24.6957 27.682 24.6957 30.3478C24.6957 33.0136 26.8568 35.1747 29.5226 35.1747Z" fill="#8D8BA7"/>
<path fill-rule="evenodd" clip-rule="evenodd" d="M16.9506 22.6021C19.6164 22.6021 21.7774 20.4411 21.7774 17.7753C21.7774 15.1096 19.6164 12.9486 16.9506 12.9486C14.2849 12.9486 12.1239 15.1096 12.1239 17.7753C12.1239 20.4411 14.2849 22.6021 16.9506 22.6021Z" fill="#8D8BA7"/>
<path fill-rule="evenodd" clip-rule="evenodd" d="M16.9504 35.1747C19.6161 35.1747 21.7772 33.0136 21.7772 30.3478C21.7772 27.682 19.6161 25.5209 16.9504 25.5209C14.2847 25.5209 12.1237 27.682 12.1237 30.3478C12.1237 33.0136 14.2847 35.1747 16.9504 35.1747Z" fill="#8D8BA7"/>
<path fill-rule="evenodd" clip-rule="evenodd" d="M4.82679 35.1747C7.4926 35.1747 9.65367 33.0136 9.65367 30.3478C9.65367 27.682 7.4926 25.5209 4.82679 25.5209C2.16098 25.5209 -9.15527e-05 27.682 -9.15527e-05 30.3478C-9.15527e-05 33.0136 2.16098 35.1747 4.82679 35.1747Z" fill="#8D8BA7"/>
</svg>
